<?xml version="1.0" encoding="utf-8"?>
<!-- Generator: Adobe Illustrator 28.3.0, SVG Export Plug-In . SVG Version: 6.00 Build 0)  -->
<svg version="1.1" id="Layer_1" xmlns="http://www.w3.org/2000/svg" xmlns:xlink="http://www.w3.org/1999/xlink" x="0px" y="0px"
	 viewBox="0 0 121.57 42.31" style="enable-background:new 0 0 121.57 42.31;" xml:space="preserve">
<style type="text/css">
	.st0{fill:#f0f0f0;}
</style>
<g>
	<g>
		<path class="st0" d="M119.54,0.81h-6.17v16.43h-3.78V0.81h-6.17v15c0,2.51-1.03,2.92,0,4.2c1.36,1.68-2.73,2.01,0,3.47
			c4.04,2.14-4.32,2.98,0,4.46c5.4,1.99-5.4,3.98,0,5.97c7.02,2.8-7.02,5.6,0,8.4h6.17c-7.02-2.8,7.02-5.6,0-8.4
			c-5.4-1.99,5.4-3.98,0-5.97c-4.32-1.49,4.32-2.98,0-4.46h3.78c4.32,1.49-4.32,2.98,0,4.46c5.4,1.99-5.4,3.98,0,5.97
			c7.02,2.8-7.02,5.6,0,8.4h6.17c-7.02-2.8,7.02-5.6,0-8.4c-5.4-1.99,5.4-3.98,0-5.97c-4.32-1.49,4.05-2.34,0-4.46
			c-2.9-1.53,1.25-1.73,0-3.47c-0.99-1.38,0-1.52,0-3.96V0.81z"/>
	</g>
	<g>
		<path class="st0" d="M26.4,0.81h-6.17v14.63c0,1.2-0.13,1.53-0.27,2.18c-0.12,0.55,0.05,0.9,0.39,1.66
			c0.44,0.98-0.86,1.77-0.89,2.72c-0.03,1.03,1.58,0.97,1.58,1.94c0,1.37-4.25,2.8-0.81,3.99c5.4,1.99-5.4,3.98,0,5.97
			c7.02,2.8-7.02,5.6,0,8.4h14.58c-5.67-2.26,2.4-4.52,2.01-6.79c-0.06-0.33-0.36-1.61-3.38-1.61c-1.66,0-4.76,0-5.93,0
			c-1.85,0-2.65-0.58-2.65-1.39c0-1.66,5.3-3.19,1.53-4.58c-3.44-1.19,0.94-2.85,0.94-4.18c0-1.44-0.84-1.05-1.35-1.75
			c-0.46-0.64,0.17-0.97,0.44-1.86c0.27-0.9-0.25-0.87-0.25-1.71c0-0.67,0.22-0.81,0.22-2.21V0.81H26.4z"/>
	</g>
	<g>
		<path class="st0" d="M54.86,6.23C54.56,1.94,51.08,0,46.82,0c-4.25,0-7.73,1.94-8.04,6.23l-0.02,10.13c0,1.85-0.78,2.4,0,3.65
			c0.91,1.47-1.76,2.43,0,3.47c2.91,1.71-3.79,2.94,0,4.46c5.34,2.15-5.4,3.98,0,5.97c1.94,0.77,2.27,1.54,1.89,2.32
			c-1.1,1.56-3.04,2.83-2.72,3.84c0.09,1.01,2.43,1.75,4.75,2.24h8.29c0.03-0.49-0.35-1.24,0.93-2.24c1.06-1.01,3.77-2.28,4.88-3.84
			c0.38-0.77,0.05-1.54-1.89-2.32c-5.4-1.99,5.4-3.98,0-5.97c-4.32-1.49,3.02-3.19,0-4.94c-1.87-1.09,0.76-1.76,0.15-3.31
			c-0.74-1.89-0.15-1.55-0.15-3.66L54.86,6.23z M48.71,16.21c0,1.99-0.61,2.09,0,3.41c0.58,1.25-1.66,2.5,0,3.47
			c3.62,2.1-4.32,3.36,0,4.85c3.69,1.36-0.18,2.72-1.29,4.08c-1.08,1.27-0.01,1.89-0.01,1.89s-5.1-0.39-3.78-1.89
			c1.1-1.36,4.98-2.72,1.29-4.08c-4.32-1.49,3.72-2.78-0.1-4.81c-2.06-1.1,0.69-1.98,0.1-3.12c-0.8-1.56,0-1.26,0-3.29l0.1-10.49
			c0,0,0.3-1.28,1.79-1.28c1.69,0,1.79,1.28,1.79,1.28L48.71,16.21z"/>
	</g>
	<g>
		<path class="st0" d="M95.1,0.81h-9.49l-2.08,18.34c-0.39,2.41-2.52,2.56-0.49,4.32c2.51,2.17-4.66,2.98-0.51,4.46
			c5.18,1.99-5.85,3.98-0.68,5.97c6.7,2.8-7.66,5.6-0.95,8.4c2.07,0,4.13,0,6.2,0c-6.75-2.8,7.53-5.6,0.76-8.4h5
			c7.27,2.8-6.51,5.6,0.74,8.4c2.07,0,4.14,0,6.22,0c-7.34-2.8,6.39-5.6-0.95-8.4c-5.63-1.99,4.95-3.98-0.68-5.97
			c-3.53-1.17,0.15-1.1,0.33-2.72c0.05-0.44-0.16-1-0.84-1.75c-1.95-2.14-0.09-1.69-0.46-4.04L95.1,0.81z M91.35,17.24
			c0.08,0.93-0.16,1.42-0.11,1.98c0.04,0.51,0.53,0.77,0.53,1.33c0,0.69-0.75,1.36-0.75,1.99c0,0.9,2.05,1.07,2.05,1.9
			c0,1.16-4.23,2.33-0.75,3.49H88.4c-4.19-1.49,3.18-2.57,0.4-4.46c-0.57-0.39-0.64-0.81-0.63-1.13c0.01-0.75,0.96-1.2,0.96-1.86
			c0-0.41-0.21-0.66-0.21-1.03c0-0.59,0.38-1.23,0.47-2.51l1.02-10.79L91.35,17.24z"/>
	</g>
	<g>
		<path class="st0" d="M8.2,6.23h8.41V0.81H2.03v18.11c0,1.34-0.07,1.86-0.2,2.49s0.02,1.19,0.33,1.44
			c2.69,2.13-2.71,3.85-0.13,5.09c5.19,2.49-5.4,3.98,0,5.97c7.02,2.8-7.02,5.6,0,8.4h9.26c-3.51-3.61,2.76-5.11-3.09-8.4
			c-5.02-2.82,5.41-4.02,0-5.97c-3.76-1.36,2.06-2.14,0-4.46h6.87c-1.83-1.91,0.65-2.38-0.07-4.17c-0.33-0.84-0.11-1.62,0.07-2.06
			H8.2V6.23z"/>
	</g>
	<g>
		<path class="st0" d="M60.22,0.81h6.21l1.79,18.23c0.27,2.32-1.85,2.57,0.43,4.42c2.49,2.01-4.03,2.98,0.44,4.46
			c5.6,1.99-5.01,3.98,0.59,5.97c-5.21-1.99,5.79-3.98,0.59-5.97c-4.18-1.49,3.72-1.49,0.44-4.46c-1.87-1.7,0.22-2.32,0.47-4.79
			L72.93,0.8h6.21L77.1,18.73c-0.24,1.96-1.12,2.65-1.07,3.69c0.05,1.08,0.93,0.89,0.93,1.87c0,1.73-4.43,2.38-0.9,3.64
			c5.18,1.99-5.85,3.98-0.68,5.97c6.7,2.8-7.66,5.6-0.95,8.4h-9.49c-7.34-2.8,6.39-5.6-0.95-8.4c-5.63-1.99,4.95-3.98-0.68-5.97
			c-4.49-1.49,1.8-2.32-0.51-4.46c-1.92-1.78-0.13-2.32-0.51-4.46L60.22,0.81z"/>
	</g>
</g>
</svg>
